<svg width="12" height="12" viewBox="0 0 12 12" fill="none" xmlns="http://www.w3.org/2000/svg">
<path d="M6 7.375C5.795 7.375 5.625 7.205 5.625 7V4.5C5.625 4.295 5.795 4.125 6 4.125C6.205 4.125 6.375 4.295 6.375 4.5V7C6.375 7.205 6.205 7.375 6 7.375Z" fill="#FF1C1C"/>
<path d="M6 9.00027C5.97 9.00027 5.935 8.99527 5.9 8.99027C5.87 8.98527 5.84 8.97527 5.81 8.96027C5.78 8.95027 5.75 8.93527 5.72 8.91527C5.695 8.89527 5.67 8.87527 5.645 8.85527C5.555 8.76027 5.5 8.63027 5.5 8.50027C5.5 8.37027 5.555 8.24027 5.645 8.14527C5.67 8.12527 5.695 8.10527 5.72 8.08527C5.75 8.06527 5.78 8.05027 5.81 8.04027C5.84 8.02527 5.87 8.01527 5.9 8.01027C5.965 7.99527 6.035 7.99527 6.095 8.01027C6.13 8.01527 6.16 8.02527 6.19 8.04027C6.22 8.05027 6.25 8.06527 6.28 8.08527C6.305 8.10527 6.33 8.12527 6.355 8.14527C6.445 8.24027 6.5 8.37027 6.5 8.50027C6.5 8.63027 6.445 8.76027 6.355 8.85527C6.33 8.87527 6.305 8.89527 6.28 8.91527C6.25 8.93527 6.22 8.95027 6.19 8.96027C6.16 8.97527 6.13 8.98527 6.095 8.99027C6.065 8.99527 6.03 9.00027 6 9.00027Z" fill="#FF1C1C"/>
<path d="M9.02999 11.0799H2.96999C1.99499 11.0799 1.24999 10.7249 0.869988 10.0849C0.494988 9.44492 0.544988 8.61992 1.01999 7.76492L4.04999 2.31492C4.54999 1.41492 5.23999 0.919922 5.99999 0.919922C6.75999 0.919922 7.44999 1.41492 7.94999 2.31492L10.98 7.76992C11.455 8.62492 11.51 9.44492 11.13 10.0899C10.75 10.7249 10.005 11.0799 9.02999 11.0799ZM5.99999 1.66992C5.52999 1.66992 5.06999 2.02992 4.70499 2.67992L1.67999 8.13492C1.33999 8.74492 1.28499 9.30492 1.51999 9.70992C1.75499 10.1149 2.27499 10.3349 2.97499 10.3349H9.03499C9.73499 10.3349 10.25 10.1149 10.49 9.70992C10.73 9.30492 10.67 8.74992 10.33 8.13492L7.29499 2.67992C6.92999 2.02992 6.46999 1.66992 5.99999 1.66992Z" fill="#FF1C1C"/>
</svg>
