<svg width="125" height="32" viewBox="0 0 125 32" fill="none" xmlns="http://www.w3.org/2000/svg">
<path d="M16 0C24.8366 0 32 7.16344 32 16C32 17.3857 30.7561 18.3731 29.3729 18.2902L26.8936 18.1416C24.3681 17.99 22.3538 15.9757 22.2021 13.4502L21.5625 2.78125L20.9229 13.4502C20.7712 15.9757 18.7569 17.99 16.2314 18.1416L5.5625 18.7812L16.2314 19.4209C18.7569 19.5725 20.7712 21.5868 20.9229 24.1123L21.015 25.6498C21.2079 28.8684 19.2243 32 16 32C7.16344 32 0 24.8366 0 16C0 7.16344 7.16344 0 16 0ZM26.8936 19.4209C29.32 19.2752 31.2237 21.5003 30.0621 23.6356C29.3529 24.9393 28.4678 26.1334 27.4386 27.186C25.2108 29.4643 22.0114 27.2931 22.2021 24.1123C22.3538 21.5868 24.3681 19.5725 26.8936 19.4209Z" fill="white"/>
<path d="M50 10.04V12.3H44.18V15.88H48.64V18.1H44.18V24H41.38V10.04H50ZM53.5855 14.64C53.9455 14.0533 54.4121 13.5933 54.9855 13.26C55.5721 12.9267 56.2388 12.76 56.9855 12.76V15.7H56.2455C55.3655 15.7 54.6988 15.9067 54.2455 16.32C53.8055 16.7333 53.5855 17.4533 53.5855 18.48V24H50.7855V12.92H53.5855V14.64ZM62.5914 24.18C61.5247 24.18 60.5647 23.9467 59.7114 23.48C58.8581 23 58.1847 22.3267 57.6914 21.46C57.2114 20.5933 56.9714 19.5933 56.9714 18.46C56.9714 17.3267 57.2181 16.3267 57.7114 15.46C58.2181 14.5933 58.9047 13.9267 59.7714 13.46C60.6381 12.98 61.6047 12.74 62.6714 12.74C63.7381 12.74 64.7047 12.98 65.5714 13.46C66.4381 13.9267 67.1181 14.5933 67.6114 15.46C68.1181 16.3267 68.3714 17.3267 68.3714 18.46C68.3714 19.5933 68.1114 20.5933 67.5914 21.46C67.0847 22.3267 66.3914 23 65.5114 23.48C64.6447 23.9467 63.6714 24.18 62.5914 24.18ZM62.5914 21.74C63.0981 21.74 63.5714 21.62 64.0114 21.38C64.4647 21.1267 64.8247 20.7533 65.0914 20.26C65.3581 19.7667 65.4914 19.1667 65.4914 18.46C65.4914 17.4067 65.2114 16.6 64.6514 16.04C64.1047 15.4667 63.4314 15.18 62.6314 15.18C61.8314 15.18 61.1581 15.4667 60.6114 16.04C60.0781 16.6 59.8114 17.4067 59.8114 18.46C59.8114 19.5133 60.0714 20.3267 60.5914 20.9C61.1247 21.46 61.7914 21.74 62.5914 21.74ZM75.3653 12.76C76.6853 12.76 77.752 13.18 78.5653 14.02C79.3786 14.8467 79.7853 16.0067 79.7853 17.5V24H76.9853V17.88C76.9853 17 76.7653 16.3267 76.3253 15.86C75.8853 15.38 75.2853 15.14 74.5253 15.14C73.752 15.14 73.1386 15.38 72.6853 15.86C72.2453 16.3267 72.0253 17 72.0253 17.88V24H69.2253V12.92H72.0253V14.3C72.3986 13.82 72.872 13.4467 73.4453 13.18C74.032 12.9 74.672 12.76 75.3653 12.76ZM84.508 15.22V20.58C84.508 20.9533 84.5946 21.2267 84.768 21.4C84.9546 21.56 85.2613 21.64 85.688 21.64H86.988V24H85.228C82.868 24 81.688 22.8533 81.688 20.56V15.22H80.368V12.92H81.688V10.18H84.508V12.92H86.988V15.22H84.508ZM90.6019 9.2V24H87.8019V9.2H90.6019ZM93.5883 11.6C93.0949 11.6 92.6816 11.4467 92.3483 11.14C92.0283 10.82 91.8683 10.4267 91.8683 9.96C91.8683 9.49333 92.0283 9.10667 92.3483 8.8C92.6816 8.48 93.0949 8.32 93.5883 8.32C94.0816 8.32 94.4883 8.48 94.8083 8.8C95.1416 9.10667 95.3083 9.49333 95.3083 9.96C95.3083 10.4267 95.1416 10.82 94.8083 11.14C94.4883 11.4467 94.0816 11.6 93.5883 11.6ZM94.9683 12.92V24H92.1683V12.92H94.9683ZM102.675 12.76C103.995 12.76 105.061 13.18 105.875 14.02C106.688 14.8467 107.095 16.0067 107.095 17.5V24H104.295V17.88C104.295 17 104.075 16.3267 103.635 15.86C103.195 15.38 102.595 15.14 101.835 15.14C101.061 15.14 100.448 15.38 99.9947 15.86C99.5547 16.3267 99.3347 17 99.3347 17.88V24H96.5347V12.92H99.3347V14.3C99.708 13.82 100.181 13.4467 100.755 13.18C101.341 12.9 101.981 12.76 102.675 12.76ZM118.857 18.22C118.857 18.62 118.831 18.98 118.777 19.3H110.677C110.744 20.1 111.024 20.7267 111.517 21.18C112.011 21.6333 112.617 21.86 113.337 21.86C114.377 21.86 115.117 21.4133 115.557 20.52H118.577C118.257 21.5867 117.644 22.4667 116.737 23.16C115.831 23.84 114.717 24.18 113.397 24.18C112.331 24.18 111.371 23.9467 110.517 23.48C109.677 23 109.017 22.3267 108.537 21.46C108.071 20.5933 107.837 19.5933 107.837 18.46C107.837 17.3133 108.071 16.3067 108.537 15.44C109.004 14.5733 109.657 13.9067 110.497 13.44C111.337 12.9733 112.304 12.74 113.397 12.74C114.451 12.74 115.391 12.9667 116.217 13.42C117.057 13.8733 117.704 14.52 118.157 15.36C118.624 16.1867 118.857 17.14 118.857 18.22ZM115.957 17.42C115.944 16.7 115.684 16.1267 115.177 15.7C114.671 15.26 114.051 15.04 113.317 15.04C112.624 15.04 112.037 15.2533 111.557 15.68C111.091 16.0933 110.804 16.6733 110.697 17.42H115.957Z" fill="white"/>
<path d="M123.319 8.26871C123.339 8.26644 123.358 8.27097 123.376 8.28231C123.395 8.29138 123.409 8.30272 123.421 8.31633L123.666 8.57823C123.539 8.73469 123.38 8.85488 123.189 8.93878C122.999 9.02268 122.772 9.06463 122.509 9.06463C122.284 9.06463 122.08 9.02494 121.896 8.94558C121.712 8.86621 121.555 8.75737 121.426 8.61905C121.297 8.47846 121.196 8.31179 121.123 8.11905C121.053 7.9263 121.018 7.71769 121.018 7.4932C121.018 7.26417 121.057 7.05329 121.137 6.86054C121.216 6.6678 121.325 6.50227 121.464 6.36395C121.604 6.22562 121.769 6.11791 121.957 6.04082C122.148 5.96372 122.354 5.92517 122.577 5.92517C122.826 5.92517 123.038 5.96599 123.213 6.04762C123.39 6.12925 123.542 6.23469 123.669 6.36395L123.479 6.63265C123.467 6.64853 123.45 6.6644 123.428 6.68027C123.407 6.69615 123.381 6.70408 123.349 6.70408C123.315 6.70408 123.28 6.69274 123.244 6.67007C123.21 6.64512 123.167 6.61791 123.114 6.58844C123.062 6.55896 122.996 6.53288 122.917 6.5102C122.838 6.48526 122.735 6.47279 122.611 6.47279C122.463 6.47279 122.332 6.4966 122.216 6.54422C122.1 6.59184 122.001 6.65986 121.92 6.7483C121.838 6.83673 121.776 6.94444 121.732 7.07143C121.689 7.19615 121.668 7.33673 121.668 7.4932C121.668 7.65646 121.689 7.80159 121.732 7.92857C121.778 8.05556 121.839 8.16327 121.916 8.2517C121.996 8.33787 122.089 8.40363 122.195 8.44898C122.302 8.49206 122.419 8.51361 122.546 8.51361C122.662 8.51361 122.757 8.50454 122.832 8.48639C122.907 8.46825 122.971 8.44671 123.026 8.42177C123.08 8.39456 123.129 8.36735 123.172 8.34014C123.218 8.31293 123.266 8.28912 123.319 8.26871ZM120 7.5034C120 7.27438 120.029 7.05329 120.088 6.84014C120.147 6.62698 120.231 6.42744 120.34 6.2415C120.449 6.05556 120.58 5.88662 120.732 5.73469C120.884 5.58277 121.052 5.45238 121.236 5.34354C121.422 5.23469 121.621 5.15079 121.835 5.09184C122.048 5.03061 122.269 5 122.498 5C122.727 5 122.949 5.03061 123.162 5.09184C123.375 5.15079 123.575 5.23469 123.761 5.34354C123.947 5.45238 124.116 5.58277 124.268 5.73469C124.42 5.88662 124.551 6.05556 124.66 6.2415C124.769 6.42744 124.853 6.62698 124.912 6.84014C124.971 7.05329 125 7.27438 125 7.5034C125 7.73243 124.969 7.95351 124.908 8.16667C124.849 8.37982 124.765 8.57937 124.656 8.76531C124.55 8.94898 124.42 9.11678 124.268 9.26871C124.116 9.42063 123.947 9.55102 123.761 9.65986C123.575 9.76871 123.375 9.85261 123.162 9.91156C122.949 9.97052 122.727 10 122.498 10C122.269 10 122.048 9.97052 121.835 9.91156C121.621 9.85261 121.422 9.76871 121.236 9.65986C121.052 9.55102 120.884 9.42063 120.732 9.26871C120.58 9.11678 120.449 8.94898 120.34 8.76531C120.231 8.57937 120.147 8.37982 120.088 8.16667C120.029 7.95351 120 7.73243 120 7.5034ZM120.405 7.5034C120.405 7.80272 120.458 8.08277 120.565 8.34354C120.674 8.60204 120.823 8.82766 121.011 9.02041C121.199 9.21088 121.42 9.36168 121.675 9.47279C121.931 9.5839 122.206 9.63946 122.498 9.63946C122.693 9.63946 122.882 9.61451 123.063 9.56463C123.245 9.51474 123.413 9.44444 123.567 9.35374C123.724 9.26077 123.865 9.14966 123.993 9.02041C124.122 8.89116 124.232 8.74717 124.323 8.58844C124.413 8.42971 124.484 8.25964 124.534 8.07823C124.584 7.89456 124.609 7.70295 124.609 7.5034C124.609 7.30385 124.584 7.11224 124.534 6.92857C124.484 6.74263 124.413 6.57029 124.323 6.41156C124.232 6.25283 124.122 6.10884 123.993 5.97959C123.865 5.84807 123.724 5.73583 123.567 5.64286C123.413 5.54989 123.245 5.47846 123.063 5.42857C122.882 5.37642 122.693 5.35034 122.498 5.35034C122.206 5.35034 121.931 5.40703 121.675 5.52041C121.42 5.63152 121.199 5.78458 121.011 5.97959C120.823 6.17234 120.674 6.40023 120.565 6.66327C120.458 6.92404 120.405 7.20408 120.405 7.5034Z" fill="white"/>
</svg>
