<svg width="12" height="12" viewBox="0 0 12 12" fill="none" xmlns="http://www.w3.org/2000/svg">
<path d="M6 11.375C3.035 11.375 0.625 8.965 0.625 6C0.625 3.035 3.035 0.625 6 0.625C8.965 0.625 11.375 3.035 11.375 6C11.375 8.965 8.965 11.375 6 11.375ZM6 1.375C3.45 1.375 1.375 3.45 1.375 6C1.375 8.55 3.45 10.625 6 10.625C8.55 10.625 10.625 8.55 10.625 6C10.625 3.45 8.55 1.375 6 1.375Z" fill="#00D087"/>
<path d="M5.28997 7.7898C5.18997 7.7898 5.09497 7.7498 5.02497 7.6798L3.60997 6.2648C3.46497 6.1198 3.46497 5.8798 3.60997 5.7348C3.75497 5.5898 3.99497 5.5898 4.13997 5.7348L5.28997 6.8848L7.85997 4.3148C8.00497 4.1698 8.24497 4.1698 8.38997 4.3148C8.53497 4.4598 8.53497 4.6998 8.38997 4.8448L5.55497 7.6798C5.48497 7.7498 5.38997 7.7898 5.28997 7.7898Z" fill="#00D087"/>
</svg>
